#!OML:ASF I:\Actors\actors\Patient Classification 2\Patient 1\Session 1\actor1.ASF
:FULLY-SPECIFIED
:DEGREES
652
root -1.45368 18.239 6.14849 4.67245 6.59041 -6.71819
lowerback 13.8631 1.64283 5.49182
upperback -0.24412 3.06538 -0.135813
thorax -7.75875 1.2675 -3.86483
lowerneck -10.3421 -9.8231 -4.39396
upperneck 5.64698 -13.1259 6.66824
head 4.08965 -6.25986 1.80476
rclavicle -2.48481e-015 8.74653e-015
rhumerus 9.88312 -17.3438 -31.1548
rradius 88.5431
rwrist 17.7172
rhand -35.9831 -28.8563
rfingers 7.12502
rthumb -9.09346 -58.6402
lclavicle -2.48481e-015 8.74653e-015
lhumerus -41.4085 -10.4956 80.914
lradius 85.3781
lwrist 22.6903
lhand -7.38485 -15.0076
lfingers 7.12502
lthumb 18.5007 14.1326
rfemur 5.6951 -9.79366 24.8989
rtibia 1.59028e-014
rfoot -17.2365 -10.0474
rtoes 3.85539
lfemur 13.3767 -7.67632 -7.56921
ltibia -23.504
lfoot 4.01426 13.7921
ltoes -17.7835
653
root -1.44956 18.2393 6.14461 4.65124 6.60238 -6.72072
lowerback 13.8566 1.64076 5.49946
upperback -0.257192 3.06641 -0.105806
thorax -7.77045 1.26764 -3.83729
lowerneck -10.4071 -9.82178 -4.44847
upperneck 5.77049 -13.1263 6.71137
head 4.14465 -6.25495 1.81886
rclavicle -3.60794e-014 1.27222e-014
rhumerus 9.54617 -16.5776 -31.0385
rradius 89.216
rwrist 17.8402
rhand -36.2488 -34.0845
rfingers 7.12502
rthumb -9.34984 -63.8571
lclavicle -3.60794e-014 1.27222e-014
lhumerus -41.4291 -10.5569 80.9566
lradius 85.3002
lwrist 22.6649
lhand -7.36202 -14.9483
lfingers 7.12502
lthumb 18.5226 14.1899
rfemur 5.70823 -9.80472 24.8832
rtibia 1.90833e-014
rfoot -17.2308 -10.0587
rtoes 3.68311
lfemur 13.3726 -7.70354 -7.58478
ltibia -23.4806
lfoot 4.01457 13.8168
ltoes -17.6233
654
root -1.44542 18.2392 6.14116 4.62084 6.599 -6.71378
lowerback 13.8378 1.65008 5.51337
upperback -0.271277 3.08149 -0.0925868
thorax -7.77364 1.27431 -3.83337
lowerneck -10.3216 -9.83373 -4.47113
upperneck 5.74596 -13.1467 6.77259
head 4.13035 -6.26481 1.84316
rclavicle -5.19822e-014 -2.70347e-014
rhumerus 9.39292 -16.7531 -31.0611
rradius 89.0969
rwrist 17.6271
rhand -35.7757 -28.3085
rfingers 7.12502
rthumb -8.89335 -58.1011
lclavicle -5.19822e-014 -2.70347e-014
lhumerus -41.4835 -10.7088 80.9935
lradius 85.2516
lwrist 22.6134
lhand -7.43202 -14.8221
lfingers 7.12502
lthumb 18.4553 14.3224
rfemur 5.73119 -9.80197 24.8536
rtibia 2.54444e-014
rfoot -17.2382 -10.0617
rtoes 3.80037
lfemur 13.3869 -7.69952 -7.6107
ltibia -23.4673
lfoot 3.97572 13.827
ltoes -17.406
655
root -1.43949 18.2387 6.13746 4.58867 6.557 -6.70791
lowerback 13.8424 1.67619 5.56856
upperback -0.323819 3.12645 -0.10464
thorax -7.82509 1.29067 -3.88783
lowerneck -10.1557 -9.82014 -4.46363
upperneck 5.73025 -13.1347 6.77856
head 4.09813 -6.26266 1.8533
rclavicle -4.14466e-014 -1.31198e-014
rhumerus 9.02964 -16.4522 -30.9925
rradius 89.4133
rwrist 17.8073
rhand -35.6322 -28.4893
rfingers 7.12502
rthumb -8.75487 -58.2878
lclavicle -4.14466e-014 -1.31198e-014
lhumerus -41.5885 -10.8998 81.0312
lradius 85.187
lwrist 22.5541
lhand -7.44969 -14.7054
lfingers 7.12502
lthumb 18.4383 14.4407
rfemur 5.75307 -9.76013 24.8162
rtibia -1.11319e-014
rfoot -17.2412 -10.0573
rtoes 4.04016
lfemur 13.4245 -7.65565 -7.63892
ltibia -23.465
lfoot 3.86669 13.8414
ltoes -16.8402
656
root -1.43283 18.2379 6.13245 4.56827 6.49766 -6.72423
lowerback 13.8509 1.70794 5.63591
upperback -0.393632 3.18237 -0.110238
thorax -7.89601 1.31081 -3.94512
lowerneck -9.98621 -9.78548 -4.40513
upperneck 5.75127 -13.0975 6.72158
head 4.06741 -6.24948 1.83889
rclavicle 2.48481e-014 -9.54166e-015
rhumerus 8.69881 -16.1667 -31.024
rradius 89.6217
rwrist 17.8964
rhand -35.466 -28.487
rfingers 7.12502
rthumb -8.59449 -58.292
lclavicle 2.48481e-014 -9.54166e-015
lhumerus -41.702 -11.0077 81.0668
lradius 85.1222
lwrist 22.4592
lhand -7.32617 -14.6295
lfingers 7.12502
lthumb 18.5571 14.5054
rfemur 5.75532 -9.69825 24.8027
rtibia -6.36111e-015
rfoot -17.2547 -10.0538
rtoes 4.19439
lfemur 13.4577 -7.6138 -7.64895
ltibia -23.4619
lfoot 3.78263 13.8683
ltoes -16.4479
657
root -1.42758 18.2372 6.12738 4.5472 6.44344 -6.72063
lowerback 13.8301 1.72989 5.63215
upperback -0.402566 3.21151 -0.0907587
thorax -7.89221 1.3255 -3.92694
lowerneck -9.97259 -9.75034 -4.3602
upperneck 5.77613 -13.0542 6.68086
head 4.06476 -6.22901 1.82406
rclavicle 0 1.27222e-014
rhumerus 8.56116 -15.924 -31.1486
rradius 89.6466
rwrist 17.7898
rhand -35.7176 -28.1027
rfingers 7.12502
rthumb -8.83732 -57.8976
lclavicle 0 1.27222e-014
lhumerus -41.7046 -11.0204 81.085
lradius 85.044
lwrist 22.3574
lhand -7.16594 -14.6537
lfingers 7.12502
lthumb 18.7112 14.4664
rfemur 5.7594 -9.64393 24.774
rtibia 1.43125e-014
rfoot -17.2374 -10.0599
rtoes 4.17272
lfemur 13.4904 -7.57415 -7.68141
ltibia -23.4647
lfoot 3.76299 13.8705
ltoes -16.4333
658
root -1.42412 18.2377 6.12348 4.52471 6.39985 -6.70407
lowerback 13.7999 1.74138 5.58904
upperback -0.383836 3.21977 -0.0577449
thorax -7.85807 1.33368 -3.86673
lowerneck -10.0363 -9.707 -4.37016
upperneck 5.75797 -12.9922 6.68994
head 4.06746 -6.19703 1.83081
rclavicle -8.44835e-015 8.34896e-015
rhumerus 8.42528 -15.6697 -31.2491
rradius 89.7678
rwrist 17.6125
rhand -36.0666 -27.8807
rfingers 7.12502
rthumb -9.17405 -57.6612
lclavicle -8.44835e-015 8.34896e-015
lhumerus -41.6531 -11.0274 81.0913
lradius 84.9586
lwrist 22.3546
lhand -7.05875 -14.7199
lfingers 7.12502
lthumb 18.8143 14.3902
rfemur 5.77229 -9.60266 24.7412
rtibia 6.36111e-015
rfoot -17.2083 -10.0641
rtoes 4.05043
lfemur 13.52 -7.49348 -7.71435
ltibia -23.4758
lfoot 3.78458 13.805
ltoes -16.4863
659
root -1.42162 18.239 6.12083 4.51294 6.36567 -6.7156
lowerback 13.7522 1.74624 5.56702
upperback -0.395597 3.2227 -0.0255306
thorax -7.84655 1.33697 -3.81832
lowerneck -10.0124 -9.65215 -4.3114
upperneck 5.71204 -12.9195 6.64149
head 4.03854 -6.16381 1.81649
rclavicle 4.63168e-014 4.77083e-015
rhumerus 8.20648 -15.3777 -31.3509
rradius 90.0377
rwrist 17.5427
rhand -36.0568 -27.9561
rfingers 7.12502
rthumb -9.16457 -57.7369
lclavicle 4.63168e-014 4.77083e-015
lhumerus -41.6794 -11.0421 81.0813
lradius 84.9146
lwrist 22.3639
lhand -7.03122 -14.74
lfingers 7.12502
lthumb 18.8408 14.3676
rfemur 5.77751 -9.56827 24.7451
rtibia -7.95139e-015
rfoot -17.232 -10.063
rtoes 4.14126
lfemur 13.5309 -7.41678 -7.70416
ltibia -23.4741
lfoot 3.79222 13.7344
ltoes -16.442
660
root -1.41832 18.2396 6.1187 4.50109 6.32879 -6.71879
lowerback 13.7018 1.75486 5.5506
upperback -0.432707 3.23085 -0.011981
thorax -7.85903 1.34076 -3.7947
lowerneck -9.92304 -9.60497 -4.14053
upperneck 5.70615 -12.8673 6.4965
head 3.99864 -6.14383 1.75779
rclavicle 4.6615e-014 2.74323e-014
rhumerus 7.98817 -15.0577 -31.418
rradius 90.2138
rwrist 17.5792
rhand -35.9997 -27.6446
rfingers 7.12502
rthumb -9.10956 -57.4279
lclavicle 4.6615e-014 2.74323e-014
lhumerus -41.7521 -11.0587 81.0675
lradius 84.8607
lwrist 22.2797
lhand -7.08215 -14.7401
lfingers 7.12502
lthumb 18.7918 14.3722
rfemur 5.78577 -9.53079 24.7329
rtibia -1.11319e-014
rfoot -17.2576 -10.0567
rtoes 4.34738
lfemur 13.5452 -7.39792 -7.71419
ltibia -23.4552
lfoot 3.78892 13.7432
ltoes -16.4001
661
root -1.41433 18.2399 6.11768 4.48821 6.30496 -6.67054
lowerback 13.6359 1.76722 5.49989
upperback -0.45938 3.23558 -0.0165296
thorax -7.85243 1.34487 -3.76936
lowerneck -9.84677 -9.55611 -4.05417
upperneck 5.72294 -12.8131 6.46146
head 3.98089 -6.11833 1.74256
rclavicle 4.62174e-014 1.35174e-014
rhumerus 7.73506 -14.7321 -31.4448
rradius 90.3655
rwrist 17.569
rhand -35.8572 -27.3129
rfingers 7.12502
rthumb -8.97202 -57.1021
lclavicle 4.62174e-014 1.35174e-014
lhumerus -41.7588 -11.0463 81.077
lradius 84.756
lwrist 22.1699
lhand -7.10527 -14.7269
lfingers 7.12502
lthumb 18.7696 14.3876
rfemur 5.80619 -9.50942 24.6609
rtibia -1.59028e-014
rfoot -17.2345 -10.0628
rtoes 4.26533
lfemur 13.5646 -7.40386 -7.79032
ltibia -23.4338
lfoot 3.78662 13.7737
ltoes -16.4389
662
root -1.41085 18.2406 6.1169 4.48256 6.28183 -6.60795
lowerback 13.547 1.78456 5.44429
upperback -0.464015 3.24342 -0.027083
thorax -7.80844 1.3524 -3.74639
lowerneck -9.84368 -9.52312 -4.12968
upperneck 5.77777 -12.7714 6.55699
head 4.00648 -6.0936 1.78374
rclavicle -3.67752e-014 -1.03368e-014
rhumerus 7.44712 -14.3696 -31.4287
rradius 90.5177
rwrist 17.297
rhand -35.6903 -27.4831
rfingers 7.12502
rthumb -8.81094 -57.2792
lclavicle -3.67752e-014 -1.03368e-014
lhumerus -41.6942 -11.0079 81.1011
lradius 84.6399
lwrist 22.0991
lhand -7.07898 -14.6661
lfingers 7.12502
lthumb 18.7949 14.4459
rfemur 5.82178 -9.48962 24.5775
rtibia 4.77083e-015
rfoot -17.2008 -10.0899
rtoes 4.01126
lfemur 13.5704 -7.36796 -7.8783
ltibia -23.4169
lfoot 3.77329 13.7697
ltoes -16.4397
663
root -1.40777 18.2405 6.11583 4.45453 6.2301 -6.57763
lowerback 13.4991 1.81215 5.42332
upperback -0.475921 3.27254 -0.0473575
thorax -7.79109 1.36744 -3.75963
lowerneck -9.88201 -9.51393 -4.17549
upperneck 5.87656 -12.7631 6.60997
head 4.04907 -6.08495 1.80231
rclavicle -1.22253e-014 -9.93923e-015
rhumerus 7.10291 -13.9467 -31.4326
rradius 90.7378
rwrist 16.7674
rhand -35.5105 -27.6597
rfingers 7.12502
rthumb -8.63747 -57.463
lclavicle -1.22253e-014 -9.93923e-015
lhumerus -41.6514 -11.0064 81.1086
lradius 84.5273
lwrist 22.0481
lhand -7.0735 -14.5962
lfingers 7.12502
lthumb 18.8001 14.5153
rfemur 5.85377 -9.44121 24.5258
rtibia 1.59028e-015
rfoot -17.2069 -10.1007
rtoes 3.9371
lfemur 13.6102 -7.31379 -7.93388
ltibia -23.4118
lfoot 3.76181 13.7666
ltoes -16.3396
